<?xml version="1.0" standalone="no"?>
<!DOCTYPE svg PUBLIC "-//W3C//DTD SVG 20010904//EN"
 "http://www.w3.org/TR/2001/REC-SVG-20010904/DTD/svg10.dtd">
<svg version="1.0" xmlns="http://www.w3.org/2000/svg"
 width="2000.000000pt" height="2000.000000pt" viewBox="0 0 2000.000000 2000.000000"
 preserveAspectRatio="xMidYMid meet">

<g transform="translate(0.000000,2000.000000) scale(0.100000,-0.100000)"
fill="#000000" stroke="none">
<path d="M12120 14990 c-155 -32 -264 -86 -307 -151 -22 -34 -27 -55 -32 -137
-7 -112 -20 -140 -78 -167 -21 -10 -61 -34 -89 -52 -65 -43 -130 -51 -234 -29
-41 9 -93 16 -115 16 -131 0 -302 -109 -432 -276 -43 -55 -109 -179 -123 -233
-8 -31 -28 -60 -67 -100 -122 -123 -214 -307 -213 -427 1 -109 56 -166 252
-266 128 -66 247 -130 296 -160 18 -11 35 -18 37 -16 2 2 7 42 10 88 13 168
66 390 94 390 9 0 47 -18 85 -40 37 -22 70 -40 72 -40 2 0 67 -38 144 -85 127
-77 203 -128 355 -237 70 -50 138 -82 236 -113 46 -14 98 -30 114 -35 17 -5
87 -20 155 -32 137 -24 414 -31 583 -15 l87 9 0 -129 c0 -170 -12 -266 -50
-398 -18 -60 -35 -123 -40 -140 -4 -16 -29 -91 -55 -165 -42 -121 -46 -142
-42 -201 6 -90 50 -172 147 -270 146 -147 347 -212 505 -163 45 13 51 13 60
-1 6 -8 33 -49 61 -90 l51 -74 104 71 c126 85 181 131 287 240 152 157 251
290 336 452 31 60 74 130 95 155 93 112 171 250 212 376 39 117 30 272 -20
355 -8 14 -65 77 -126 140 -99 102 -115 124 -144 195 -48 113 -58 192 -41 313
22 161 24 278 5 345 -36 128 -125 243 -280 359 -86 65 -415 278 -535 346 -19
11 -120 70 -225 132 -417 244 -526 280 -860 279 -141 -1 -212 -5 -275 -19z"/>
<path d="M11453 11918 c-5 -7 -18 -40 -27 -73 -10 -33 -22 -73 -27 -89 -14
-46 -11 -182 6 -234 35 -105 114 -178 257 -238 l79 -34 8 23 c4 12 13 83 20
157 6 74 14 163 17 197 l6 62 -88 57 c-49 31 -91 60 -94 63 -3 3 -25 22 -50
42 -25 20 -56 46 -69 58 -28 25 -26 24 -38 9z"/>
<path d="M13615 11119 c-148 -4 -380 -12 -515 -19 -135 -6 -360 -16 -500 -21
-827 -31 -913 -35 -1030 -50 -96 -12 -210 -40 -210 -51 0 -5 -8 -8 -19 -8 -10
0 -32 -7 -47 -15 -16 -8 -39 -15 -51 -15 -13 0 -23 -4 -23 -10 0 -5 -11 -10
-24 -10 -14 0 -28 -4 -31 -10 -3 -5 -14 -10 -23 -10 -9 0 -30 -7 -46 -15 -15
-8 -37 -15 -47 -15 -11 0 -19 -4 -19 -10 0 -5 -11 -10 -24 -10 -14 0 -28 -4
-31 -10 -3 -5 -13 -10 -22 -10 -13 0 -63 -19 -103 -40 -9 -4 -31 -11 -50 -15
-19 -4 -39 -10 -45 -14 -5 -4 -30 -13 -55 -20 -25 -8 -59 -20 -77 -27 -17 -8
-38 -14 -47 -14 -9 0 -26 -5 -39 -12 -41 -21 -53 -25 -87 -33 -19 -4 -41 -11
-50 -15 -8 -4 -26 -12 -40 -18 -14 -6 -64 -29 -113 -51 -48 -23 -92 -41 -97
-41 -6 0 -10 -3 -10 -8 0 -4 -15 -14 -32 -21 -46 -20 -162 -92 -166 -102 -2
-5 -8 -9 -14 -9 -5 0 -28 -15 -50 -32 -107 -87 -182 -173 -311 -358 -75 -107
-141 -200 -147 -207 -5 -7 -10 -17 -10 -23 0 -5 -3 -10 -8 -10 -4 0 -16 -16
-26 -35 -11 -19 -23 -35 -28 -35 -4 0 -8 -6 -8 -14 0 -8 -3 -16 -7 -18 -5 -1
-44 -57 -88 -123 -43 -66 -82 -122 -85 -125 -3 -3 -9 -13 -15 -22 -22 -38
-151 -224 -167 -242 -10 -11 -20 -28 -24 -38 -3 -10 -10 -18 -15 -18 -5 0 -9
-6 -9 -14 0 -8 -3 -16 -7 -18 -7 -2 -60 -78 -98 -139 -43 -69 -89 -135 -96
-137 -5 -2 -9 -10 -9 -17 0 -8 -6 -20 -13 -27 -8 -7 -26 -33 -42 -57 -15 -25
-32 -49 -37 -55 -5 -6 -59 -87 -120 -181 -61 -93 -114 -172 -117 -175 -8 -6
-29 -40 -38 -60 -4 -8 -9 -17 -12 -20 -12 -10 -61 -90 -61 -99 0 -5 -4 -11 -8
-13 -5 -1 -26 -32 -47 -68 -21 -36 -50 -83 -64 -105 -22 -34 -26 -51 -25 -111
0 -43 6 -84 16 -105 9 -19 23 -50 31 -70 30 -73 201 -229 338 -308 53 -31 253
-131 262 -131 8 0 32 -10 102 -41 35 -16 190 -71 205 -73 24 -4 73 -17 95 -26
39 -15 127 -40 146 -40 10 0 21 -4 24 -10 3 -5 17 -10 31 -10 13 0 32 -4 42
-10 9 -5 42 -14 72 -19 30 -5 75 -15 100 -21 119 -29 153 -32 171 -13 9 10 98
146 197 303 458 728 665 1055 671 1060 7 6 29 40 38 60 4 8 9 17 12 20 3 3 11
14 17 24 35 64 39 36 73 -579 6 -110 16 -255 21 -323 14 -170 13 -235 -6 -295
-8 -29 -20 -70 -26 -92 -5 -22 -13 -47 -18 -55 -4 -9 -11 -39 -15 -68 -4 -29
-11 -54 -16 -58 -5 -3 -9 -16 -9 -30 0 -13 -4 -32 -9 -42 -9 -18 -49 -168 -58
-217 -3 -16 -9 -34 -13 -40 -5 -5 -11 -31 -15 -58 -4 -26 -11 -50 -16 -53 -5
-3 -9 -18 -9 -33 0 -15 -3 -31 -7 -35 -7 -7 -23 -70 -40 -151 -3 -16 -13 -40
-21 -52 l-14 -23 -1372 0 c-754 0 -1376 4 -1381 8 -9 6 -36 97 -65 222 -4 19
-16 62 -25 95 -9 33 -20 78 -25 100 -4 22 -16 67 -25 100 -9 33 -21 85 -25
115 -4 30 -22 107 -38 170 -17 63 -52 196 -77 295 -26 99 -51 196 -55 215 -7
30 -53 210 -95 365 -35 133 -72 211 -122 260 -68 66 -153 88 -388 100 -60 3
-137 10 -170 15 -55 9 -300 31 -522 46 -106 8 -103 11 -73 -80 22 -65 26 -130
10 -171 -27 -71 -84 -83 -291 -61 -85 8 -164 19 -176 22 -18 5 -26 -2 -47 -44
-69 -137 -143 -134 -330 12 -88 68 -106 77 -106 50 0 -24 -36 -70 -73 -93 -82
-51 -199 -47 -371 11 l-89 30 -58 -63 c-32 -35 -58 -69 -59 -75 0 -6 21 -19
48 -29 90 -34 190 -127 229 -215 27 -62 45 -106 108 -270 37 -96 73 -188 80
-205 7 -16 25 -61 40 -100 15 -38 33 -83 40 -100 7 -16 55 -138 106 -270 l94
-240 3 -761 2 -761 43 -6 c23 -3 94 -13 157 -22 63 -9 147 -21 185 -25 80 -11
230 -31 500 -70 33 -5 96 -13 140 -19 99 -13 209 -29 295 -41 36 -5 119 -16
185 -25 66 -8 149 -20 185 -25 36 -6 133 -20 215 -31 83 -11 182 -25 220 -30
355 -50 455 -61 495 -55 19 3 50 0 68 -6 33 -12 42 -11 217 39 28 8 64 18 80
23 17 5 122 36 235 70 113 34 214 64 225 67 11 3 65 19 120 35 134 40 194 58
230 68 17 5 71 20 120 35 50 14 113 32 140 40 28 7 70 20 95 28 25 8 72 22
105 32 215 61 244 76 274 140 24 51 25 69 10 116 -25 75 -67 101 -214 134 -38
8 -89 20 -112 25 -100 23 -242 55 -378 85 -66 14 -134 30 -151 35 -17 6 -39
10 -49 10 -10 0 -32 4 -49 9 -28 9 -100 26 -211 51 -22 5 -71 16 -110 25 -38
8 -90 20 -115 26 -55 13 -102 23 -200 44 -41 9 -88 20 -105 24 -16 5 -58 14
-92 21 -77 15 -92 26 -103 70 -5 19 -27 108 -50 198 -22 89 -38 167 -35 172 4
6 767 10 2088 10 l2082 0 -46 43 c-176 163 -187 396 -26 544 97 88 221 138
404 163 97 13 159 10 263 -13 36 -8 88 -18 115 -21 97 -14 242 -75 345 -147
47 -33 67 -39 140 -48 78 -10 149 -21 335 -51 39 -6 97 -15 130 -20 33 -5 105
-16 160 -25 55 -9 127 -20 160 -25 33 -4 105 -15 160 -24 55 -9 127 -21 160
-25 108 -16 260 -41 279 -47 19 -6 126 -72 136 -83 6 -7 5 -6 160 -99 313
-189 531 -272 711 -272 85 0 169 16 169 32 0 5 6 8 14 8 7 0 36 25 64 55 l51
55 133 0 c73 -1 164 -5 201 -9 140 -18 238 -95 318 -248 26 -48 68 -128 94
-178 26 -49 74 -142 107 -205 33 -63 79 -151 103 -195 23 -44 71 -134 105
-200 34 -66 84 -160 110 -210 49 -92 127 -241 210 -400 26 -49 78 -148 115
-220 180 -344 177 -337 177 -445 -1 -64 -6 -90 -30 -143 -54 -119 -158 -202
-282 -225 -37 -7 -725 -13 -2055 -17 -1100 -3 -2947 -10 -4105 -15 -6275 -29
-7736 -33 -7775 -21 -161 49 -261 160 -286 314 -17 105 -2 166 89 352 30 61
63 131 73 157 10 27 55 123 99 214 53 109 80 175 78 192 -3 28 -34 -29 -136
-248 -22 -47 -66 -141 -100 -210 -146 -305 -135 -272 -136 -395 0 -100 3 -115
28 -168 36 -74 120 -164 186 -199 28 -15 80 -33 115 -40 49 -9 628 -9 2482 1
1330 6 2920 11 3533 11 613 0 1612 4 2220 10 608 5 2122 12 3365 15 1602 4
2278 8 2325 16 36 7 90 24 121 40 176 88 268 307 206 489 -11 34 -93 198 -197
395 -29 55 -79 152 -113 215 -33 63 -77 147 -97 185 -21 39 -66 124 -100 190
-34 66 -82 156 -105 200 -23 44 -73 139 -110 210 -77 147 -171 326 -302 574
-64 122 -176 207 -302 231 -29 5 -122 10 -205 10 l-152 0 3 648 c5 856 -12
2588 -27 2667 -11 62 -20 92 -50 160 -10 22 -21 51 -25 65 -11 35 -138 243
-169 277 -14 15 -26 33 -26 40 0 7 -4 13 -9 13 -5 0 -34 30 -64 68 -64 79
-191 208 -267 272 -29 25 -63 54 -74 65 -27 26 -94 76 -125 93 -95 54 -177 99
-263 145 -89 48 -112 61 -118 67 -3 3 -28 17 -56 31 -103 53 -249 132 -254
138 -3 3 -48 28 -100 54 -52 27 -113 58 -135 71 -114 65 -138 76 -163 74 -15
0 -148 -5 -297 -9z"/>
<path d="M3360 8482 c-85 -7 -180 -72 -225 -153 -25 -46 -29 -65 -30 -129 0
-41 6 -93 13 -115 15 -47 122 -424 163 -572 5 -18 13 -48 18 -65 16 -57 100
-352 110 -383 5 -16 17 -58 27 -92 10 -35 20 -63 24 -63 3 0 88 165 188 366
167 335 188 372 240 423 89 89 205 131 356 131 l57 0 -6 63 c-4 34 -11 84 -16
110 -5 26 -9 61 -9 77 0 44 -25 37 -39 -10 -14 -46 -45 -72 -150 -124 -41 -21
-93 -48 -117 -62 -64 -38 -168 -56 -252 -44 -82 11 -91 14 -159 47 -89 42
-107 125 -45 202 42 51 156 136 211 156 25 9 67 28 92 41 90 46 211 20 304
-65 61 -56 90 -73 122 -69 15 2 27 6 26 11 -1 4 -4 61 -8 127 -4 68 -12 124
-19 129 -6 5 -94 14 -196 20 -102 6 -246 17 -320 25 -139 15 -298 23 -360 18z"/>
<path d="M4290 8371 c0 -27 4 -52 8 -55 5 -3 26 4 48 14 89 44 292 52 417 15
64 -19 74 -16 58 13 -9 17 -25 21 -88 26 -43 3 -105 10 -138 16 -33 5 -115 12
-182 15 l-123 6 0 -50z"/>
<path d="M4320 8153 c0 -5 7 -46 16 -93 9 -47 21 -115 28 -153 17 -94 28 -102
74 -52 55 60 102 117 102 124 0 4 -28 25 -63 48 -35 23 -82 62 -105 87 -42 46
-52 53 -52 39z"/>
<path d="M12039 6018 c-12 -24 -34 -65 -49 -93 -15 -27 -69 -131 -120 -230
-119 -230 -139 -267 -153 -281 -9 -9 -74 -9 -262 1 l-250 14 -50 -23 c-27 -13
-122 -67 -209 -120 -88 -53 -161 -96 -163 -96 -2 0 -38 -22 -81 -48 -42 -27
-207 -127 -367 -222 -159 -96 -295 -179 -300 -185 -53 -52 -62 -145 -21 -206
45 -66 34 -64 656 -104 129 -8 291 -19 360 -25 69 -5 233 -17 365 -25 245 -16
405 -27 645 -45 74 -6 209 -15 300 -21 91 -5 224 -14 295 -19 72 -5 202 -14
290 -20 88 -5 185 -12 215 -15 30 -3 125 -10 210 -15 85 -6 218 -15 295 -20
77 -6 241 -17 365 -26 124 -8 284 -19 355 -24 72 -5 243 -16 380 -25 138 -8
255 -17 262 -20 22 -7 109 24 130 47 12 13 35 48 51 78 30 57 78 146 178 335
32 61 75 142 96 180 21 39 63 120 94 181 48 94 55 115 49 146 -9 49 -39 95
-76 117 -39 24 -16 22 -864 61 -126 6 -324 15 -440 20 -115 6 -316 15 -445 21
-283 12 -532 23 -985 44 -187 8 -448 20 -580 25 -255 10 -285 14 -285 32 0 6
25 59 56 117 31 58 90 169 130 246 40 77 79 154 88 170 9 17 16 33 16 36 0 6
-145 79 -156 79 -2 0 -13 -19 -25 -42z m-566 -714 c97 -4 177 -8 177 -9 0 -1
-7 -46 -15 -100 -15 -99 -11 -127 18 -138 8 -3 17 -21 21 -39 8 -43 46 -80
109 -107 50 -22 122 -28 131 -12 14 22 244 38 289 20 40 -16 141 -79 145 -90
2 -5 9 -9 15 -9 7 0 23 -10 37 -22 41 -38 98 -78 109 -78 6 0 11 -4 11 -9 0
-5 13 -12 30 -16 16 -4 32 -11 35 -16 4 -5 17 -9 30 -9 13 0 27 -4 30 -10 4
-6 54 -10 116 -10 99 0 113 -2 149 -25 22 -14 46 -25 53 -25 7 0 17 -4 23 -9
5 -4 34 -16 64 -26 30 -10 66 -23 79 -29 36 -17 321 -15 357 3 16 8 45 21 64
30 19 9 41 20 49 26 8 5 64 10 125 11 151 0 238 26 314 93 32 28 82 126 82
159 -1 54 -47 134 -93 162 -39 24 -87 27 -87 5 0 -9 9 -15 23 -15 30 0 88 -37
94 -61 3 -10 9 -19 14 -19 5 0 9 -27 9 -61 0 -50 -5 -67 -29 -102 -63 -90
-141 -126 -283 -129 -104 -2 -112 2 -90 45 9 17 20 34 23 37 13 10 21 92 14
142 -6 43 -14 58 -52 94 -25 24 -53 44 -63 44 -10 0 -22 5 -25 10 -9 14 -68
12 -96 -2 -71 -38 -99 -81 -99 -152 0 -92 59 -180 143 -213 43 -18 43 -30 1
-53 -47 -26 -73 -31 -184 -35 -156 -5 -230 9 -370 73 -75 34 -76 39 -16 96 60
57 72 77 90 144 17 67 -1 143 -46 189 -18 18 -43 36 -55 39 -13 4 -23 10 -23
15 0 15 -128 10 -158 -5 -72 -38 -104 -123 -82 -225 7 -34 17 -61 21 -61 5 0
9 -5 9 -11 0 -6 18 -32 40 -58 58 -68 55 -75 -34 -68 -40 3 -82 10 -92 15 -11
6 -37 18 -59 27 -39 17 -152 93 -189 127 -11 10 -28 20 -38 24 -10 3 -18 10
-18 15 0 5 -5 9 -10 9 -6 0 -27 10 -48 23 -66 41 -125 49 -222 31 -130 -25
-225 -29 -264 -10 -53 25 -71 52 -69 104 1 41 7 51 50 91 26 25 59 66 72 91
14 25 29 48 35 52 6 4 61 5 121 3 61 -3 290 -12 510 -20 220 -8 459 -17 530
-20 72 -3 240 -10 375 -15 135 -5 421 -16 635 -25 648 -26 881 -35 1082 -42
117 -3 198 -10 207 -17 11 -9 8 -24 -23 -87 -20 -42 -50 -107 -68 -145 -17
-38 -57 -123 -88 -189 -32 -66 -72 -154 -91 -195 -19 -41 -49 -106 -67 -144
l-32 -69 -100 6 c-55 4 -201 14 -325 22 -371 26 -477 33 -650 44 -91 6 -187
13 -215 16 -27 3 -122 10 -210 15 -88 6 -221 14 -295 19 -74 6 -238 17 -365
25 -126 9 -293 20 -370 26 -77 6 -210 15 -295 20 -85 5 -220 14 -300 20 -80 5
-210 15 -290 20 -80 6 -206 15 -280 20 -74 6 -209 15 -300 21 -91 6 -219 14
-285 19 -66 4 -203 13 -305 20 -102 6 -205 15 -230 19 l-45 7 70 46 c76 50
158 100 810 498 l200 122 60 -6 c33 -3 140 -9 238 -12z m1428 -218 c82 -34
120 -88 118 -170 -1 -62 -39 -137 -89 -176 -55 -44 -72 -45 -117 -8 -44 37
-93 101 -93 123 0 7 -4 17 -10 20 -15 9 -12 98 5 139 18 43 77 85 121 85 17 1
47 -5 65 -13z m701 -118 c97 -56 116 -187 41 -286 -22 -30 -28 -32 -61 -26
-68 13 -162 92 -162 137 0 9 -5 28 -12 42 -9 19 -9 28 0 37 7 7 12 21 12 31 0
10 14 32 31 48 26 24 40 29 80 29 27 0 59 -6 71 -12z"/>
</g>
</svg>
