<svg width="84" height="20" viewBox="0 0 84 20" fill="none" xmlns="http://www.w3.org/2000/svg">
<path d="M22.3523 19V16.0909H23.3693C23.572 16.0909 23.7391 16.1259 23.8707 16.196C24.0024 16.2652 24.1004 16.3584 24.1648 16.4759C24.2292 16.5923 24.2614 16.7216 24.2614 16.8636C24.2614 16.9886 24.2391 17.0919 24.1946 17.1733C24.151 17.2547 24.0933 17.3191 24.0213 17.3665C23.9503 17.4138 23.8731 17.4489 23.7898 17.4716V17.5C23.8788 17.5057 23.9683 17.5369 24.0582 17.5938C24.1482 17.6506 24.2235 17.732 24.2841 17.8381C24.3447 17.9441 24.375 18.0739 24.375 18.2273C24.375 18.3731 24.3419 18.5043 24.2756 18.6207C24.2093 18.7372 24.1046 18.8295 23.9616 18.8977C23.8187 18.9659 23.6326 19 23.4034 19H22.3523ZM22.7045 18.6875H23.4034C23.6335 18.6875 23.7969 18.643 23.8935 18.554C23.991 18.464 24.0398 18.3551 24.0398 18.2273C24.0398 18.1288 24.0147 18.0379 23.9645 17.9545C23.9143 17.8703 23.8428 17.803 23.75 17.7528C23.6572 17.7017 23.5473 17.6761 23.4205 17.6761H22.7045V18.6875ZM22.7045 17.3693H23.358C23.464 17.3693 23.5597 17.3485 23.6449 17.3068C23.7311 17.2652 23.7992 17.2064 23.8494 17.1307C23.9006 17.0549 23.9261 16.9659 23.9261 16.8636C23.9261 16.7358 23.8816 16.6274 23.7926 16.5384C23.7036 16.4484 23.5625 16.4034 23.3693 16.4034H22.7045V17.3693ZM24.7038 16.0909H25.1072L25.9141 17.4489H25.9482L26.755 16.0909H27.1584L26.1072 17.8011V19H25.755V17.8011L24.7038 16.0909ZM27.6761 19.0227C27.6061 19.0227 27.5459 18.9976 27.4957 18.9474C27.4455 18.8973 27.4205 18.8371 27.4205 18.767C27.4205 18.697 27.4455 18.6368 27.4957 18.5866C27.5459 18.5365 27.6061 18.5114 27.6761 18.5114C27.7462 18.5114 27.8063 18.5365 27.8565 18.5866C27.9067 18.6368 27.9318 18.697 27.9318 18.767C27.9318 18.8134 27.92 18.8561 27.8963 18.8949C27.8736 18.9337 27.8428 18.965 27.804 18.9886C27.7661 19.0114 27.7235 19.0227 27.6761 19.0227ZM29.7038 19V16.0909H30.6868C30.915 16.0909 31.1016 16.1321 31.2464 16.2145C31.3923 16.2959 31.5002 16.4062 31.5703 16.5455C31.6404 16.6847 31.6754 16.84 31.6754 17.0114C31.6754 17.1828 31.6404 17.3385 31.5703 17.4787C31.5012 17.6188 31.3942 17.7306 31.2493 17.8139C31.1044 17.8963 30.9188 17.9375 30.6925 17.9375H29.9879V17.625H30.6811C30.8374 17.625 30.9628 17.598 31.0575 17.544C31.1522 17.4901 31.2209 17.4171 31.2635 17.3253C31.3071 17.2325 31.3288 17.1278 31.3288 17.0114C31.3288 16.8949 31.3071 16.7907 31.2635 16.6989C31.2209 16.607 31.1518 16.535 31.0561 16.483C30.9605 16.4299 30.8336 16.4034 30.6754 16.4034H30.0561V19H29.7038ZM32.2429 19V16.0909H32.5952V18.6875H33.9474V19H32.2429ZM36.7997 16.0909V19H36.4588L34.8736 16.7159H34.8452V19H34.4929V16.0909H34.8338L36.4247 18.3807H36.4531V16.0909H36.7997ZM38.9819 16.0909V19H38.6296V16.0909H38.9819ZM42.0291 17H41.6768C41.656 16.8987 41.6196 16.8097 41.5675 16.733C41.5163 16.6562 41.4538 16.5919 41.38 16.5398C41.3071 16.4867 41.2261 16.447 41.1371 16.4205C41.0481 16.3939 40.9553 16.3807 40.8587 16.3807C40.6825 16.3807 40.523 16.4252 40.38 16.5142C40.2379 16.6032 40.1248 16.7344 40.0405 16.9077C39.9571 17.081 39.9155 17.2936 39.9155 17.5455C39.9155 17.7973 39.9571 18.0099 40.0405 18.1832C40.1248 18.3565 40.2379 18.4877 40.38 18.5767C40.523 18.6657 40.6825 18.7102 40.8587 18.7102C40.9553 18.7102 41.0481 18.697 41.1371 18.6705C41.2261 18.6439 41.3071 18.6046 41.38 18.5526C41.4538 18.4995 41.5163 18.4347 41.5675 18.358C41.6196 18.2803 41.656 18.1913 41.6768 18.0909H42.0291C42.0026 18.2396 41.9543 18.3726 41.8842 18.4901C41.8142 18.6075 41.727 18.7074 41.6229 18.7898C41.5187 18.8712 41.4018 18.9332 41.272 18.9759C41.1432 19.0185 41.0054 19.0398 40.8587 19.0398C40.6106 19.0398 40.3899 18.9792 40.1967 18.858C40.0036 18.7367 39.8516 18.5644 39.7408 18.3409C39.63 18.1174 39.5746 17.8523 39.5746 17.5455C39.5746 17.2386 39.63 16.9735 39.7408 16.75C39.8516 16.5265 40.0036 16.3542 40.1967 16.233C40.3899 16.1117 40.6106 16.0511 40.8587 16.0511C41.0054 16.0511 41.1432 16.0724 41.272 16.1151C41.4018 16.1577 41.5187 16.2202 41.6229 16.3026C41.727 16.384 41.8142 16.4834 41.8842 16.6009C41.9543 16.7173 42.0026 16.8504 42.0291 17ZM45.0529 17.5455C45.0529 17.8523 44.9975 18.1174 44.8867 18.3409C44.7759 18.5644 44.6239 18.7367 44.4308 18.858C44.2376 18.9792 44.0169 19.0398 43.7688 19.0398C43.5207 19.0398 43.3001 18.9792 43.1069 18.858C42.9137 18.7367 42.7617 18.5644 42.6509 18.3409C42.5401 18.1174 42.4847 17.8523 42.4847 17.5455C42.4847 17.2386 42.5401 16.9735 42.6509 16.75C42.7617 16.5265 42.9137 16.3542 43.1069 16.233C43.3001 16.1117 43.5207 16.0511 43.7688 16.0511C44.0169 16.0511 44.2376 16.1117 44.4308 16.233C44.6239 16.3542 44.7759 16.5265 44.8867 16.75C44.9975 16.9735 45.0529 17.2386 45.0529 17.5455ZM44.712 17.5455C44.712 17.2936 44.6699 17.081 44.5856 16.9077C44.5022 16.7344 44.3891 16.6032 44.2461 16.5142C44.104 16.4252 43.945 16.3807 43.7688 16.3807C43.5927 16.3807 43.4331 16.4252 43.2901 16.5142C43.1481 16.6032 43.0349 16.7344 42.9506 16.9077C42.8673 17.081 42.8256 17.2936 42.8256 17.5455C42.8256 17.7973 42.8673 18.0099 42.9506 18.1832C43.0349 18.3565 43.1481 18.4877 43.2901 18.5767C43.4331 18.6657 43.5927 18.7102 43.7688 18.7102C43.945 18.7102 44.104 18.6657 44.2461 18.5767C44.3891 18.4877 44.5022 18.3565 44.5856 18.1832C44.6699 18.0099 44.712 17.7973 44.712 17.5455ZM47.9521 16.0909V19H47.6112L46.0259 16.7159H45.9975V19H45.6452V16.0909H45.9862L47.5771 18.3807H47.6055V16.0909H47.9521ZM49.782 19V16.0909H50.7649C50.9931 16.0909 51.1797 16.1321 51.3246 16.2145C51.4704 16.2959 51.5784 16.4062 51.6484 16.5455C51.7185 16.6847 51.7536 16.84 51.7536 17.0114C51.7536 17.1828 51.7185 17.3385 51.6484 17.4787C51.5793 17.6188 51.4723 17.7306 51.3274 17.8139C51.1825 17.8963 50.9969 17.9375 50.7706 17.9375H50.0661V17.625H50.7592C50.9155 17.625 51.041 17.598 51.1357 17.544C51.2304 17.4901 51.299 17.4171 51.3416 17.3253C51.3852 17.2325 51.407 17.1278 51.407 17.0114C51.407 16.8949 51.3852 16.7907 51.3416 16.6989C51.299 16.607 51.2299 16.535 51.1342 16.483C51.0386 16.4299 50.9117 16.4034 50.7536 16.4034H50.1342V19H49.782ZM52.321 19V16.0909H52.6733V18.6875H54.0256V19H52.321ZM56.4801 16.0909H56.8324V18.017C56.8324 18.2159 56.7855 18.3935 56.6918 18.5497C56.599 18.705 56.4678 18.8277 56.2983 18.9176C56.1288 19.0066 55.9299 19.0511 55.7017 19.0511C55.4735 19.0511 55.2746 19.0066 55.1051 18.9176C54.9356 18.8277 54.804 18.705 54.7102 18.5497C54.6174 18.3935 54.571 18.2159 54.571 18.017V16.0909H54.9233V17.9886C54.9233 18.1307 54.9545 18.2571 55.017 18.3679C55.0795 18.4777 55.1686 18.5644 55.2841 18.6278C55.4006 18.6903 55.5398 18.7216 55.7017 18.7216C55.8636 18.7216 56.0028 18.6903 56.1193 18.6278C56.2358 18.5644 56.3248 18.4777 56.3864 18.3679C56.4489 18.2571 56.4801 18.1307 56.4801 17.9886V16.0909ZM59.1268 16.8182C59.1097 16.6742 59.0406 16.5625 58.9194 16.483C58.7982 16.4034 58.6495 16.3636 58.4734 16.3636C58.3446 16.3636 58.2319 16.3845 58.1353 16.4261C58.0397 16.4678 57.9648 16.5251 57.9109 16.598C57.8578 16.6709 57.8313 16.7538 57.8313 16.8466C57.8313 16.9242 57.8498 16.991 57.8867 17.0469C57.9246 17.1018 57.9729 17.1477 58.0316 17.1847C58.0903 17.2206 58.1519 17.2505 58.2163 17.2741C58.2807 17.2969 58.3398 17.3153 58.3938 17.3295L58.6893 17.4091C58.765 17.429 58.8493 17.4564 58.9421 17.4915C59.0359 17.5265 59.1254 17.5743 59.2106 17.6349C59.2968 17.6946 59.3678 17.7713 59.4237 17.8651C59.4795 17.9588 59.5075 18.0739 59.5075 18.2102C59.5075 18.3674 59.4663 18.5095 59.3839 18.6364C59.3024 18.7633 59.1831 18.8641 59.0259 18.9389C58.8697 19.0137 58.6798 19.0511 58.4563 19.0511C58.248 19.0511 58.0676 19.0175 57.9151 18.9503C57.7636 18.883 57.6443 18.7893 57.5572 18.669C57.471 18.5488 57.4222 18.4091 57.4109 18.25H57.7745C57.784 18.3598 57.8209 18.4508 57.8853 18.5227C57.9506 18.5937 58.033 18.6468 58.1325 18.6818C58.2328 18.7159 58.3408 18.733 58.4563 18.733C58.5908 18.733 58.7115 18.7112 58.8185 18.6676C58.9255 18.6231 59.0103 18.5616 59.0728 18.483C59.1353 18.4034 59.1665 18.3106 59.1665 18.2045C59.1665 18.108 59.1396 18.0294 59.0856 17.9688C59.0316 17.9081 58.9606 17.8589 58.8725 17.821C58.7844 17.7831 58.6893 17.75 58.587 17.7216L58.229 17.6193C58.0018 17.554 57.8219 17.4607 57.6893 17.3395C57.5567 17.2183 57.4904 17.0597 57.4904 16.8636C57.4904 16.7008 57.5344 16.5587 57.6225 16.4375C57.7115 16.3153 57.8308 16.2206 57.9805 16.1534C58.131 16.0852 58.2991 16.0511 58.4847 16.0511C58.6722 16.0511 58.8389 16.0848 58.9847 16.152C59.1306 16.2183 59.2461 16.3092 59.3313 16.4247C59.4175 16.5402 59.4629 16.6714 59.4677 16.8182H59.1268Z" fill="black"/>
<path d="M3.84 9.352L2.748 10.672V13H0.924V4.624H2.748V8.608H2.82L4.008 6.988L5.892 4.624H7.956L5.136 8.068L8.208 13H6.06L3.84 9.352ZM11.5068 13.144C11.0268 13.144 10.5988 13.068 10.2228 12.916C9.84678 12.756 9.52678 12.536 9.26278 12.256C9.00678 11.968 8.81078 11.62 8.67478 11.212C8.54678 10.804 8.48278 10.348 8.48278 9.844C8.48278 9.348 8.54678 8.9 8.67478 8.5C8.80278 8.092 8.99078 7.744 9.23878 7.456C9.49478 7.168 9.80678 6.948 10.1748 6.796C10.5428 6.636 10.9628 6.556 11.4348 6.556C11.9548 6.556 12.3988 6.644 12.7668 6.82C13.1428 6.996 13.4468 7.232 13.6788 7.528C13.9188 7.824 14.0908 8.168 14.1948 8.56C14.3068 8.944 14.3628 9.348 14.3628 9.772V10.3H10.3188V10.396C10.3188 10.812 10.4308 11.144 10.6548 11.392C10.8788 11.632 11.2308 11.752 11.7108 11.752C12.0788 11.752 12.3788 11.68 12.6108 11.536C12.8428 11.384 13.0588 11.204 13.2588 10.996L14.1468 12.1C13.8668 12.428 13.4988 12.684 13.0428 12.868C12.5948 13.052 12.0828 13.144 11.5068 13.144ZM11.4708 7.864C11.1108 7.864 10.8268 7.984 10.6188 8.224C10.4188 8.456 10.3188 8.768 10.3188 9.16V9.256H12.5268V9.148C12.5268 8.764 12.4388 8.456 12.2628 8.224C12.0948 7.984 11.8308 7.864 11.4708 7.864ZM17.3811 13C16.7731 13 16.3251 12.852 16.0371 12.556C15.7571 12.26 15.6171 11.832 15.6171 11.272V4.12H17.3931V11.62H18.1851V13H17.3811ZM23.9059 13C23.5859 13 23.3179 12.9 23.1019 12.7C22.8939 12.5 22.7619 12.232 22.7059 11.896H22.6339C22.5379 12.304 22.3259 12.616 21.9979 12.832C21.6699 13.04 21.2659 13.144 20.7859 13.144C20.1539 13.144 19.6699 12.976 19.3339 12.64C18.9979 12.304 18.8299 11.86 18.8299 11.308C18.8299 10.644 19.0699 10.152 19.5499 9.832C20.0379 9.504 20.6979 9.34 21.5299 9.34H22.5259V8.944C22.5259 8.64 22.4459 8.4 22.2859 8.224C22.1259 8.04 21.8579 7.948 21.4819 7.948C21.1299 7.948 20.8499 8.024 20.6419 8.176C20.4339 8.328 20.2619 8.5 20.1259 8.692L19.0699 7.756C19.3259 7.38 19.6459 7.088 20.0299 6.88C20.4219 6.664 20.9499 6.556 21.6139 6.556C22.5099 6.556 23.1819 6.752 23.6299 7.144C24.0779 7.536 24.3019 8.108 24.3019 8.86V11.62H24.8899V13H23.9059ZM21.4459 11.908C21.7419 11.908 21.9939 11.844 22.2019 11.716C22.4179 11.588 22.5259 11.38 22.5259 11.092V10.348H21.6619C20.9659 10.348 20.6179 10.584 20.6179 11.056V11.236C20.6179 11.468 20.6899 11.64 20.8339 11.752C20.9779 11.856 21.1819 11.908 21.4459 11.908ZM28.2179 13.144C27.6099 13.144 27.0979 13.048 26.6819 12.856C26.2659 12.656 25.8939 12.376 25.5659 12.016L26.6099 10.96C26.8339 11.208 27.0819 11.404 27.3539 11.548C27.6259 11.692 27.9339 11.764 28.2779 11.764C28.6299 11.764 28.8739 11.712 29.0099 11.608C29.1459 11.496 29.2139 11.348 29.2139 11.164C29.2139 10.868 29.0019 10.692 28.5779 10.636L27.8939 10.552C26.4779 10.376 25.7699 9.728 25.7699 8.608C25.7699 8.304 25.8259 8.028 25.9379 7.78C26.0579 7.524 26.2219 7.308 26.4299 7.132C26.6459 6.948 26.9019 6.808 27.1979 6.712C27.5019 6.608 27.8419 6.556 28.2179 6.556C28.5459 6.556 28.8339 6.58 29.0819 6.628C29.3379 6.668 29.5619 6.732 29.7539 6.82C29.9539 6.9 30.1339 7.004 30.2939 7.132C30.4619 7.252 30.6259 7.388 30.7859 7.54L29.7659 8.584C29.5659 8.384 29.3379 8.228 29.0819 8.116C28.8339 7.996 28.5779 7.936 28.3139 7.936C28.0099 7.936 27.7939 7.984 27.6659 8.08C27.5379 8.176 27.4739 8.304 27.4739 8.464C27.4739 8.632 27.5179 8.764 27.6059 8.86C27.7019 8.948 27.8779 9.012 28.1339 9.052L28.8419 9.148C30.2259 9.332 30.9179 9.964 30.9179 11.044C30.9179 11.348 30.8539 11.628 30.7259 11.884C30.5979 12.14 30.4139 12.364 30.1739 12.556C29.9419 12.74 29.6579 12.884 29.3219 12.988C28.9939 13.092 28.6259 13.144 28.2179 13.144ZM34.7367 13V11.548H35.8167V6.076H34.7367V4.624H38.7207V6.076H37.6407V11.548H38.7207V13H34.7367ZM40.1444 13V6.7H41.9204V7.768H41.9924C42.1044 7.44 42.3004 7.156 42.5804 6.916C42.8604 6.676 43.2484 6.556 43.7444 6.556C44.3924 6.556 44.8804 6.772 45.2084 7.204C45.5444 7.636 45.7124 8.252 45.7124 9.052V13H43.9364V9.196C43.9364 8.788 43.8724 8.488 43.7444 8.296C43.6164 8.096 43.3884 7.996 43.0604 7.996C42.9164 7.996 42.7764 8.016 42.6404 8.056C42.5044 8.088 42.3804 8.144 42.2684 8.224C42.1644 8.304 42.0804 8.404 42.0164 8.524C41.9524 8.636 41.9204 8.768 41.9204 8.92V13H40.1444ZM51.1568 11.944H51.0968C51.0488 12.112 50.9728 12.272 50.8688 12.424C50.7648 12.568 50.6368 12.696 50.4848 12.808C50.3408 12.912 50.1728 12.992 49.9808 13.048C49.7968 13.112 49.6048 13.144 49.4048 13.144C48.6048 13.144 48.0008 12.864 47.5928 12.304C47.1848 11.736 46.9808 10.916 46.9808 9.844C46.9808 8.772 47.1848 7.956 47.5928 7.396C48.0008 6.836 48.6048 6.556 49.4048 6.556C49.8128 6.556 50.1728 6.668 50.4848 6.892C50.8048 7.116 51.0088 7.404 51.0968 7.756H51.1568V4.12H52.9328V13H51.1568V11.944ZM49.9928 11.704C50.3288 11.704 50.6048 11.624 50.8208 11.464C51.0448 11.296 51.1568 11.068 51.1568 10.78V8.92C51.1568 8.632 51.0448 8.408 50.8208 8.248C50.6048 8.08 50.3288 7.996 49.9928 7.996C49.6568 7.996 49.3768 8.116 49.1528 8.356C48.9368 8.588 48.8288 8.904 48.8288 9.304V10.396C48.8288 10.796 48.9368 11.116 49.1528 11.356C49.3768 11.588 49.6568 11.704 49.9928 11.704ZM58.3136 11.944H58.2536C58.1976 12.104 58.1216 12.256 58.0256 12.4C57.9376 12.544 57.8216 12.672 57.6776 12.784C57.5336 12.896 57.3616 12.984 57.1616 13.048C56.9696 13.112 56.7456 13.144 56.4896 13.144C55.8416 13.144 55.3496 12.932 55.0136 12.508C54.6856 12.076 54.5216 11.46 54.5216 10.66V6.7H56.2976V10.504C56.2976 10.888 56.3656 11.184 56.5016 11.392C56.6376 11.6 56.8696 11.704 57.1976 11.704C57.3336 11.704 57.4696 11.684 57.6056 11.644C57.7416 11.604 57.8616 11.548 57.9656 11.476C58.0696 11.396 58.1536 11.3 58.2176 11.188C58.2816 11.076 58.3136 10.944 58.3136 10.792V6.7H60.0896V13H58.3136V11.944ZM63.8781 13.144C63.2701 13.144 62.7581 13.048 62.3421 12.856C61.9261 12.656 61.5541 12.376 61.2261 12.016L62.2701 10.96C62.4941 11.208 62.7421 11.404 63.0141 11.548C63.2861 11.692 63.5941 11.764 63.9381 11.764C64.2901 11.764 64.5341 11.712 64.6701 11.608C64.8061 11.496 64.8741 11.348 64.8741 11.164C64.8741 10.868 64.6621 10.692 64.2381 10.636L63.5541 10.552C62.1381 10.376 61.4301 9.728 61.4301 8.608C61.4301 8.304 61.4861 8.028 61.5981 7.78C61.7181 7.524 61.8821 7.308 62.0901 7.132C62.3061 6.948 62.5621 6.808 62.8581 6.712C63.1621 6.608 63.5021 6.556 63.8781 6.556C64.2061 6.556 64.4941 6.58 64.7421 6.628C64.9981 6.668 65.2221 6.732 65.4141 6.82C65.6141 6.9 65.7941 7.004 65.9541 7.132C66.1221 7.252 66.2861 7.388 66.4461 7.54L65.4261 8.584C65.2261 8.384 64.9981 8.228 64.7421 8.116C64.4941 7.996 64.2381 7.936 63.9741 7.936C63.6701 7.936 63.4541 7.984 63.3261 8.08C63.1981 8.176 63.1341 8.304 63.1341 8.464C63.1341 8.632 63.1781 8.764 63.2661 8.86C63.3621 8.948 63.5381 9.012 63.7941 9.052L64.5021 9.148C65.8861 9.332 66.5781 9.964 66.5781 11.044C66.5781 11.348 66.5141 11.628 66.3861 11.884C66.2581 12.14 66.0741 12.364 65.8341 12.556C65.6021 12.74 65.3181 12.884 64.9821 12.988C64.6541 13.092 64.2861 13.144 63.8781 13.144ZM69.9032 13C69.2872 13 68.8192 12.844 68.4992 12.532C68.1872 12.22 68.0312 11.764 68.0312 11.164V8.08H67.1432V6.7H67.5872C67.8272 6.7 67.9912 6.644 68.0792 6.532C68.1672 6.412 68.2112 6.244 68.2112 6.028V4.996H69.8072V6.7H71.0552V8.08H69.8072V11.62H70.9592V13H69.9032ZM72.2889 13V6.7H74.0649V8.068H74.1249C74.1569 7.892 74.2129 7.724 74.2929 7.564C74.3729 7.396 74.4769 7.248 74.6049 7.12C74.7409 6.992 74.9009 6.892 75.0849 6.82C75.2689 6.74 75.4849 6.7 75.7329 6.7H76.0449V8.356H75.6009C75.0809 8.356 74.6929 8.424 74.4369 8.56C74.1889 8.696 74.0649 8.948 74.0649 9.316V13H72.2889ZM78.0285 6.028C77.6685 6.028 77.4045 5.948 77.2365 5.788C77.0765 5.62 76.9965 5.408 76.9965 5.152V4.888C76.9965 4.632 77.0765 4.424 77.2365 4.264C77.4045 4.096 77.6685 4.012 78.0285 4.012C78.3885 4.012 78.6485 4.096 78.8085 4.264C78.9765 4.424 79.0605 4.632 79.0605 4.888V5.152C79.0605 5.408 78.9765 5.62 78.8085 5.788C78.6485 5.948 78.3885 6.028 78.0285 6.028ZM77.1405 6.7H78.9165V13H77.1405V6.7Z" fill="black"/>
<path d="M81.6061 13.132C81.2461 13.132 80.9781 13.044 80.8021 12.868C80.6341 12.684 80.5501 12.452 80.5501 12.172V11.932C80.5501 11.652 80.6341 11.424 80.8021 11.248C80.9781 11.064 81.2461 10.972 81.6061 10.972C81.9661 10.972 82.2301 11.064 82.3981 11.248C82.5741 11.424 82.6621 11.652 82.6621 11.932V12.172C82.6621 12.452 82.5741 12.684 82.3981 12.868C82.2301 13.044 81.9661 13.132 81.6061 13.132Z" fill="#055970"/>
</svg>
